<svg width="191" height="56" viewBox="0 0 191 56" fill="none" xmlns="http://www.w3.org/2000/svg">
<path d="M49 13.3078V42L43.7554 38.9676V19.5981C44.2346 19.2249 44.5855 18.7109 44.7589 18.1281C44.9324 17.5453 44.9198 16.9228 44.7229 16.3475C44.526 15.7722 44.1547 15.273 43.6608 14.9195C43.1669 14.566 42.5751 14.376 41.9682 14.376C41.3612 14.376 40.7695 14.566 40.2756 14.9195C39.7817 15.273 39.4103 15.7722 39.2134 16.3475C39.0165 16.9228 39.0039 17.5453 39.1774 18.1281C39.3509 18.7109 39.7017 19.2249 40.1809 19.5981V36.8909L34.9395 33.8553V5.1726L49 13.3078ZM26 28.6922L31.365 31.7945V3.10229L26 0V28.6922Z" fill="white"/>
<path d="M15.2444 51.0387L40.1466 37.0144L34.8797 34.0513L18.0767 43.5115C17.9933 44.1001 17.7233 44.6487 17.3046 45.0804C16.8858 45.5122 16.3391 45.8056 15.7409 45.9197C15.1428 46.0337 14.523 45.9627 13.9682 45.7166C13.4135 45.4705 12.9515 45.0615 12.6467 44.5468C12.342 44.0322 12.2098 43.4376 12.2686 42.8461C12.3275 42.2547 12.5743 41.6959 12.9748 41.2479C13.3752 40.7999 13.9092 40.4851 14.5021 40.3474C15.0951 40.2098 15.7173 40.2562 16.2818 40.4801L31.29 32.0283L25.9022 29L1 43.0244L15.2444 51.0387ZM43.7331 39.0342L49 41.9974L24.1233 56L18.8246 53.0493L43.7331 39.0342Z" fill="white"/>
<path d="M23 0V26.6327L14.0818 31.8024V31.8343L8.83248 34.8845V19.694L8.91817 19.6239C9.38 19.2343 9.7102 18.7105 9.86329 18.1246C10.0164 17.5387 9.98483 16.9195 9.77299 16.3524C9.56116 15.7853 9.17945 15.298 8.68044 14.9578C8.18142 14.6176 7.58964 14.4411 6.9866 14.4526C6.38355 14.4641 5.7989 14.6631 5.31315 15.0222C4.82739 15.3813 4.46444 15.8828 4.27426 16.4576C4.08409 17.0324 4.07604 17.6523 4.25124 18.2319C4.42643 18.8115 4.77625 19.3224 5.25252 19.694V36.9562L0 40V13.3673L8.90548 8.19761V8.16574L14.1548 5.12191V20.3092L14.0691 20.3793C13.6073 20.7689 13.2771 21.2927 13.124 21.8786C12.9709 22.4645 13.0025 23.0836 13.2143 23.6508C13.4261 24.2179 13.8079 24.7052 14.3069 25.0454C14.8059 25.3856 15.3977 25.5621 16.0007 25.5506C16.6038 25.5391 17.1884 25.3401 17.6742 24.981C18.1599 24.6219 18.5229 24.1204 18.713 23.5456C18.9032 22.9708 18.9113 22.3509 18.7361 21.7712C18.5609 21.1916 18.2111 20.6808 17.7348 20.3092V3.04382L23 0Z" fill="#FF9500"/>
<path d="M95.12 42V23.36L87.84 37.24H84.76L77.48 23.36V42H71.96V13.6H77.88L86.28 29.76L94.76 13.6H100.64V42H95.12ZM115.378 42.4C113.671 42.4 112.138 42.12 110.778 41.56C109.418 40.9733 108.258 40.1733 107.298 39.16C106.364 38.1467 105.644 36.9867 105.138 35.68C104.631 34.3733 104.378 33 104.378 31.56C104.378 30.0933 104.631 28.7067 105.138 27.4C105.644 26.0933 106.364 24.9333 107.298 23.92C108.258 22.9067 109.418 22.12 110.778 21.56C112.138 20.9733 113.671 20.68 115.378 20.68C117.084 20.68 118.604 20.9733 119.938 21.56C121.298 22.12 122.458 22.9067 123.418 23.92C124.378 24.9333 125.098 26.0933 125.578 27.4C126.084 28.7067 126.338 30.0933 126.338 31.56C126.338 33 126.084 34.3733 125.578 35.68C125.098 36.9867 124.378 38.1467 123.418 39.16C122.484 40.1733 121.338 40.9733 119.978 41.56C118.618 42.12 117.084 42.4 115.378 42.4ZM109.898 31.56C109.898 32.7867 110.138 33.88 110.618 34.84C111.098 35.7733 111.751 36.5067 112.578 37.04C113.404 37.5733 114.338 37.84 115.378 37.84C116.391 37.84 117.311 37.5733 118.138 37.04C118.964 36.48 119.618 35.7333 120.098 34.8C120.604 33.84 120.858 32.7467 120.858 31.52C120.858 30.32 120.604 29.24 120.098 28.28C119.618 27.32 118.964 26.5733 118.138 26.04C117.311 25.5067 116.391 25.24 115.378 25.24C114.338 25.24 113.404 25.52 112.578 26.08C111.751 26.6133 111.098 27.36 110.618 28.32C110.138 29.2533 109.898 30.3333 109.898 31.56ZM132.419 21.04L136.819 27.6L137.139 28.32L137.539 27.6L141.899 21.04H147.539L140.259 31.48L147.659 42H142.019L137.499 35.48L137.139 34.8L136.819 35.48L132.339 42H126.699L134.099 31.6L126.819 21.04H132.419ZM158.973 42.4C157.293 42.4 155.773 42.12 154.413 41.56C153.053 40.9733 151.893 40.1867 150.933 39.2C149.973 38.1867 149.226 37.04 148.693 35.76C148.186 34.4533 147.933 33.08 147.933 31.64C147.933 29.64 148.373 27.8133 149.253 26.16C150.159 24.5067 151.439 23.1867 153.093 22.2C154.773 21.1867 156.746 20.68 159.013 20.68C161.306 20.68 163.266 21.1867 164.893 22.2C166.519 23.1867 167.759 24.5067 168.613 26.16C169.493 27.7867 169.933 29.5467 169.933 31.44C169.933 31.76 169.919 32.0933 169.893 32.44C169.866 32.76 169.839 33.0267 169.813 33.24H153.613C153.719 34.3067 154.026 35.24 154.533 36.04C155.066 36.84 155.733 37.4533 156.533 37.88C157.359 38.28 158.239 38.48 159.173 38.48C160.239 38.48 161.239 38.2267 162.173 37.72C163.133 37.1867 163.786 36.4933 164.133 35.64L168.733 36.92C168.226 37.9867 167.493 38.9333 166.533 39.76C165.599 40.5867 164.493 41.24 163.213 41.72C161.933 42.1733 160.519 42.4 158.973 42.4ZM153.493 29.84H164.453C164.346 28.7733 164.039 27.8533 163.533 27.08C163.053 26.28 162.413 25.6667 161.613 25.24C160.813 24.7867 159.919 24.56 158.933 24.56C157.973 24.56 157.093 24.7867 156.293 25.24C155.519 25.6667 154.879 26.28 154.373 27.08C153.893 27.8533 153.599 28.7733 153.493 29.84ZM180.918 42.4C179.131 42.4 177.424 42.1067 175.798 41.52C174.171 40.9333 172.771 40.0667 171.598 38.92L173.518 35.44C174.771 36.4533 175.998 37.2 177.198 37.68C178.424 38.16 179.598 38.4 180.718 38.4C181.758 38.4 182.584 38.2133 183.198 37.84C183.838 37.4667 184.158 36.9067 184.158 36.16C184.158 35.6533 183.984 35.2667 183.638 35C183.291 34.7067 182.784 34.4533 182.118 34.24C181.478 34.0267 180.691 33.7867 179.758 33.52C178.211 33.0133 176.918 32.52 175.878 32.04C174.838 31.56 174.051 30.96 173.518 30.24C173.011 29.4933 172.758 28.5467 172.758 27.4C172.758 26.0133 173.104 24.8267 173.798 23.84C174.518 22.8267 175.504 22.04 176.758 21.48C178.038 20.92 179.531 20.64 181.238 20.64C182.731 20.64 184.144 20.88 185.478 21.36C186.811 21.8133 188.024 22.56 189.118 23.6L186.958 27C185.891 26.1733 184.878 25.5733 183.918 25.2C182.958 24.8 181.984 24.6 180.998 24.6C180.438 24.6 179.904 24.6667 179.398 24.8C178.918 24.9333 178.518 25.16 178.198 25.48C177.904 25.7733 177.758 26.2 177.758 26.76C177.758 27.2667 177.891 27.6667 178.158 27.96C178.451 28.2267 178.878 28.4667 179.438 28.68C180.024 28.8933 180.731 29.1333 181.558 29.4C183.238 29.88 184.651 30.3733 185.798 30.88C186.971 31.3867 187.851 32.0133 188.438 32.76C189.024 33.48 189.318 34.48 189.318 35.76C189.318 37.84 188.558 39.4667 187.038 40.64C185.518 41.8133 183.478 42.4 180.918 42.4Z" fill="white"/>
</svg>
