<svg width="196" height="56" viewBox="0 0 196 56" fill="none" xmlns="http://www.w3.org/2000/svg">
<path d="M49 13.3078V42L43.7554 38.9676V19.5981C44.2346 19.2249 44.5855 18.7109 44.7589 18.1281C44.9324 17.5453 44.9198 16.9228 44.7229 16.3475C44.526 15.7722 44.1547 15.273 43.6608 14.9195C43.1669 14.566 42.5751 14.376 41.9682 14.376C41.3612 14.376 40.7695 14.566 40.2756 14.9195C39.7817 15.273 39.4103 15.7722 39.2134 16.3475C39.0165 16.9228 39.0039 17.5453 39.1774 18.1281C39.3509 18.7109 39.7017 19.2249 40.1809 19.5981V36.8909L34.9395 33.8553V5.1726L49 13.3078ZM26 28.6922L31.365 31.7945V3.10229L26 0V28.6922Z" fill="black"/>
<path d="M15.2444 51.0387L40.1466 37.0144L34.8797 34.0513L18.0767 43.5115C17.9933 44.1001 17.7233 44.6487 17.3046 45.0804C16.8858 45.5122 16.3391 45.8056 15.7409 45.9197C15.1428 46.0337 14.523 45.9627 13.9682 45.7166C13.4135 45.4705 12.9515 45.0615 12.6467 44.5468C12.342 44.0322 12.2098 43.4376 12.2686 42.8461C12.3275 42.2547 12.5743 41.6959 12.9748 41.2479C13.3752 40.7999 13.9092 40.4851 14.5021 40.3474C15.0951 40.2098 15.7173 40.2562 16.2818 40.4801L31.29 32.0283L25.9022 29L1 43.0244L15.2444 51.0387ZM43.7331 39.0342L49 41.9974L24.1233 56L18.8246 53.0493L43.7331 39.0342Z" fill="black"/>
<path d="M23 0V26.6327L14.0818 31.8024V31.8343L8.83248 34.8845V19.694L8.91817 19.6239C9.38 19.2343 9.7102 18.7105 9.86329 18.1246C10.0164 17.5387 9.98483 16.9195 9.77299 16.3524C9.56116 15.7853 9.17945 15.298 8.68044 14.9578C8.18142 14.6176 7.58964 14.4411 6.9866 14.4526C6.38355 14.4641 5.7989 14.6631 5.31315 15.0222C4.82739 15.3813 4.46444 15.8828 4.27426 16.4576C4.08409 17.0324 4.07604 17.6523 4.25124 18.2319C4.42643 18.8115 4.77625 19.3224 5.25252 19.694V36.9562L0 40V13.3673L8.90548 8.19761V8.16574L14.1548 5.12191V20.3092L14.0691 20.3793C13.6073 20.7689 13.2771 21.2927 13.124 21.8786C12.9709 22.4645 13.0025 23.0836 13.2143 23.6508C13.4261 24.2179 13.8079 24.7052 14.3069 25.0454C14.8059 25.3856 15.3977 25.5621 16.0007 25.5506C16.6038 25.5391 17.1884 25.3401 17.6742 24.981C18.1599 24.6219 18.5229 24.1204 18.713 23.5456C18.9032 22.9708 18.9113 22.3509 18.7361 21.7712C18.5609 21.1916 18.2111 20.6808 17.7348 20.3092V3.04382L23 0Z" fill="#FF9500"/>
<path d="M72.52 42V14H78.6L88.8 30.6L84.44 30.56L94.76 14H100.6V42H94V33.28C94 30.88 94.0533 28.72 94.16 26.8C94.2933 24.88 94.5067 22.9733 94.8 21.08L95.56 23.16L87.8 35.2H85.16L77.56 23.24L78.32 21.08C78.6133 22.8667 78.8133 24.7067 78.92 26.6C79.0533 28.4667 79.12 30.6933 79.12 33.28V42H72.52ZM116.957 42.4C114.744 42.4 112.771 41.92 111.037 40.96C109.331 40 107.971 38.6933 106.957 37.04C105.971 35.3867 105.477 33.4933 105.477 31.36C105.477 29.2267 105.971 27.3333 106.957 25.68C107.971 24.0267 109.331 22.72 111.037 21.76C112.771 20.8 114.744 20.32 116.957 20.32C119.171 20.32 121.131 20.8 122.837 21.76C124.571 22.72 125.931 24.0267 126.917 25.68C127.904 27.3333 128.397 29.2267 128.397 31.36C128.397 33.4933 127.904 35.3867 126.917 37.04C125.931 38.6933 124.571 40 122.837 40.96C121.131 41.92 119.171 42.4 116.957 42.4ZM116.957 36.88C117.917 36.88 118.771 36.64 119.517 36.16C120.264 35.68 120.851 35.0267 121.277 34.2C121.704 33.3733 121.904 32.4267 121.877 31.36C121.904 30.2933 121.704 29.3467 121.277 28.52C120.851 27.6667 120.264 27 119.517 26.52C118.771 26.04 117.917 25.8 116.957 25.8C115.997 25.8 115.131 26.04 114.357 26.52C113.611 27 113.024 27.6667 112.597 28.52C112.171 29.3467 111.971 30.2933 111.997 31.36C111.971 32.4267 112.171 33.3733 112.597 34.2C113.024 35.0267 113.611 35.68 114.357 36.16C115.131 36.64 115.997 36.88 116.957 36.88ZM144.881 42L140.361 35.16L138.281 32.24L129.881 20.76H137.561L141.921 27.28L144.201 30.4L152.481 42H144.881ZM129.681 42L138.241 30.08L141.681 34.2L137.241 42H129.681ZM143.721 32.76L140.321 28.68L144.521 20.76H152.081L143.721 32.76ZM164.968 42.4C162.621 42.4 160.581 41.9333 158.848 41C157.114 40.04 155.768 38.7467 154.808 37.12C153.848 35.4667 153.368 33.5867 153.368 31.48C153.368 29.8533 153.634 28.36 154.168 27C154.701 25.64 155.448 24.4667 156.408 23.48C157.368 22.4667 158.501 21.6933 159.808 21.16C161.141 20.6 162.594 20.32 164.168 20.32C165.661 20.32 167.021 20.5867 168.248 21.12C169.501 21.6533 170.581 22.4 171.488 23.36C172.394 24.32 173.088 25.4533 173.568 26.76C174.048 28.0667 174.261 29.4933 174.208 31.04L174.168 32.76H157.248L156.328 29.16H168.968L168.288 29.92V29.12C168.234 28.4533 168.021 27.8667 167.648 27.36C167.301 26.8267 166.834 26.4133 166.248 26.12C165.661 25.8267 164.994 25.68 164.248 25.68C163.208 25.68 162.314 25.8933 161.568 26.32C160.848 26.72 160.301 27.32 159.928 28.12C159.554 28.8933 159.368 29.8533 159.368 31C159.368 32.1733 159.608 33.2 160.088 34.08C160.594 34.9333 161.314 35.6 162.248 36.08C163.208 36.56 164.341 36.8 165.648 36.8C166.554 36.8 167.354 36.6667 168.048 36.4C168.768 36.1333 169.541 35.68 170.368 35.04L173.368 39.28C172.541 40 171.661 40.5867 170.728 41.04C169.794 41.4933 168.834 41.8267 167.848 42.04C166.888 42.28 165.928 42.4 164.968 42.4ZM185.445 42.4C183.365 42.4 181.525 42.0667 179.925 41.4C178.352 40.7333 177.099 39.84 176.165 38.72L180.045 35.36C180.872 36.1867 181.805 36.8 182.845 37.2C183.885 37.5733 184.872 37.76 185.805 37.76C186.179 37.76 186.512 37.72 186.805 37.64C187.099 37.56 187.339 37.4533 187.525 37.32C187.739 37.16 187.899 36.9867 188.005 36.8C188.112 36.5867 188.165 36.3467 188.165 36.08C188.165 35.5467 187.925 35.1333 187.445 34.84C187.205 34.7067 186.805 34.5467 186.245 34.36C185.685 34.1733 184.965 33.96 184.085 33.72C182.832 33.4 181.739 33.0267 180.805 32.6C179.899 32.1467 179.152 31.6267 178.565 31.04C178.032 30.48 177.619 29.8667 177.325 29.2C177.032 28.5067 176.885 27.7333 176.885 26.88C176.885 25.8933 177.112 25 177.565 24.2C178.045 23.4 178.672 22.7067 179.445 22.12C180.245 21.5333 181.152 21.0933 182.165 20.8C183.205 20.48 184.272 20.32 185.365 20.32C186.539 20.32 187.659 20.4533 188.725 20.72C189.792 20.9867 190.779 21.36 191.685 21.84C192.619 22.32 193.445 22.8933 194.165 23.56L190.805 27.32C190.325 26.8667 189.779 26.4667 189.165 26.12C188.579 25.7467 187.965 25.4533 187.325 25.24C186.685 25.0267 186.099 24.92 185.565 24.92C185.165 24.92 184.805 24.96 184.485 25.04C184.192 25.0933 183.939 25.2 183.725 25.36C183.512 25.4933 183.352 25.6667 183.245 25.88C183.139 26.0667 183.085 26.2933 183.085 26.56C183.085 26.8267 183.152 27.08 183.285 27.32C183.445 27.56 183.659 27.76 183.925 27.92C184.192 28.08 184.619 28.2667 185.205 28.48C185.792 28.6667 186.592 28.9067 187.605 29.2C188.859 29.5467 189.939 29.9333 190.845 30.36C191.752 30.7867 192.472 31.2933 193.005 31.88C193.432 32.3333 193.752 32.8667 193.965 33.48C194.179 34.0667 194.285 34.7067 194.285 35.4C194.285 36.76 193.899 37.9733 193.125 39.04C192.379 40.08 191.339 40.9067 190.005 41.52C188.672 42.1067 187.152 42.4 185.445 42.4Z" fill="black"/>
</svg>
